<svg width="12" height="21" viewBox="0 0 12 21" fill="none" xmlns="http://www.w3.org/2000/svg">
<path fill-rule="evenodd" clip-rule="evenodd" d="M0.5 0C0.223858 0 0 0.223858 0 0.500001V20.5C0 20.7761 0.223858 21 0.5 21H4.05696C4.3331 21 4.55696 20.7761 4.55696 20.5V0.5C4.55696 0.223858 4.3331 0 4.05696 0H0.5ZM7.94304 0C7.6669 0 7.44304 0.223858 7.44304 0.500001V20.5C7.44304 20.7761 7.6669 21 7.94304 21H11.5C11.7761 21 12 20.7761 12 20.5V0.5C12 0.223858 11.7761 0 11.5 0H7.94304Z" fill="#26107B"/>
</svg>
